<?xml version="1.0" encoding="UTF-8" standalone="no"?>
<!DOCTYPE svg PUBLIC "-//W3C//DTD SVG 1.1//EN" "http://www.w3.org/Graphics/SVG/1.1/DTD/svg11.dtd">
<svg width="100%" height="100%" viewBox="0 0 312 210" version="1.1" xmlns="http://www.w3.org/2000/svg" xmlns:xlink="http://www.w3.org/1999/xlink" xml:space="preserve" xmlns:serif="http://www.serif.com/" style="fill-rule:evenodd;clip-rule:evenodd;stroke-linejoin:round;stroke-miterlimit:2;">
    <g transform="matrix(1,0,0,1,-790.394,60)">
        <g transform="matrix(0.950021,0,0,0.950021,362.833,-161.245)">
            <path d="M504.749,106.571L559.444,138.15L559.444,201.306L504.749,232.884L450.054,201.306L450.054,138.15L504.749,106.571ZM504.749,114.472L552.602,142.1C552.602,142.1 552.602,197.356 552.602,197.356C552.602,197.356 504.749,224.984 504.749,224.984C504.749,224.984 456.896,197.356 456.896,197.356C456.896,197.356 456.896,142.1 456.896,142.1L504.749,114.472Z" style="fill:rgb(212,0,106);"/>
        </g>
        <g transform="matrix(0.950021,0,0,0.950021,570.679,-161.245)">
            <path d="M504.749,106.571L559.444,138.15L559.444,201.306L504.749,232.884L450.054,201.306L450.054,138.15L504.749,106.571ZM504.749,114.472L552.602,142.1C552.602,142.1 552.602,197.356 552.602,197.356C552.602,197.356 504.749,224.984 504.749,224.984C504.749,224.984 456.896,197.356 456.896,197.356C456.896,197.356 456.896,142.1 456.896,142.1L504.749,114.472Z" style="fill:rgb(212,0,106);"/>
        </g>
        <g transform="matrix(0.950021,0,0,0.950021,466.756,-161.245)">
            <path d="M504.749,106.571L559.444,138.15L559.444,201.306L504.749,232.884L450.054,201.306L450.054,138.15L504.749,106.571ZM504.749,114.472L552.602,142.1C552.602,142.1 552.602,197.356 552.602,197.356C552.602,197.356 504.749,224.984 504.749,224.984C504.749,224.984 456.896,197.356 456.896,197.356C456.896,197.356 456.896,142.1 456.896,142.1L504.749,114.472Z" style="fill:rgb(0,212,106);"/>
        </g>
        <g transform="matrix(0.950021,0,0,0.950021,414.795,-71.3592)">
            <path d="M504.749,106.571L559.444,138.15L559.444,201.306L504.749,232.884L450.054,201.306L450.054,138.15L504.749,106.571ZM504.749,114.472L552.602,142.1C552.602,142.1 552.602,197.356 552.602,197.356C552.602,197.356 504.749,224.984 504.749,224.984C504.749,224.984 456.896,197.356 456.896,197.356C456.896,197.356 456.896,142.1 456.896,142.1L504.749,114.472Z" style="fill:rgb(0,106,212);"/>
        </g>
        <g transform="matrix(0.950021,0,0,0.950021,518.718,-71.3592)">
            <path d="M504.749,106.571L559.444,138.15L559.444,201.306L504.749,232.884L450.054,201.306L450.054,138.15L504.749,106.571ZM504.749,114.472L552.602,142.1C552.602,142.1 552.602,197.356 552.602,197.356C552.602,197.356 504.749,224.984 504.749,224.984C504.749,224.984 456.896,197.356 456.896,197.356C456.896,197.356 456.896,142.1 456.896,142.1L504.749,114.472Z" style="fill:rgb(0,212,212);"/>
        </g>
    </g>
</svg>
