<?xml version="1.0" encoding="UTF-8" standalone="no"?>
<!DOCTYPE svg PUBLIC "-//W3C//DTD SVG 1.1//EN" "http://www.w3.org/Graphics/SVG/1.1/DTD/svg11.dtd">
<svg width="100%" height="100%" viewBox="0 0 832 480" version="1.1" xmlns="http://www.w3.org/2000/svg" xmlns:xlink="http://www.w3.org/1999/xlink" xml:space="preserve" xmlns:serif="http://www.serif.com/" style="fill-rule:evenodd;clip-rule:evenodd;stroke-linejoin:round;stroke-miterlimit:2;">
    <g transform="matrix(1,0,0,1,0,-220.101)">
        <g transform="matrix(-0.950021,-1.16344e-16,1.16344e-16,-0.950021,1258.95,801.245)">
            <path d="M504.749,106.571L559.444,138.15L559.444,201.306L504.749,232.884L450.054,201.306L450.054,138.15L504.749,106.571ZM504.749,114.472L552.602,142.1C552.602,142.1 552.602,197.356 552.602,197.356C552.602,197.356 504.749,224.984 504.749,224.984C504.749,224.984 456.896,197.356 456.896,197.356C456.896,197.356 456.896,142.1 456.896,142.1L504.749,114.472Z" style="fill:rgb(212,0,106);"/>
        </g>
        <g transform="matrix(-1,-1.22465e-16,1.22465e-16,-1,1051,720)">
            <g transform="matrix(0.950021,0,0,0.950021,52.2163,8.75484)">
                <path d="M504.749,106.571L559.444,138.15L559.444,201.306L504.749,232.884L450.054,201.306L450.054,138.15L504.749,106.571ZM504.749,114.472L552.602,142.1C552.602,142.1 552.602,197.356 552.602,197.356C552.602,197.356 504.749,224.984 504.749,224.984C504.749,224.984 456.896,197.356 456.896,197.356C456.896,197.356 456.896,142.1 456.896,142.1L504.749,114.472Z" style="fill:rgb(212,0,106);"/>
            </g>
            <g transform="matrix(0.950021,0,0,0.950021,363.985,8.75484)">
                <path d="M504.749,106.571L559.444,138.15L559.444,201.306L504.749,232.884L450.054,201.306L450.054,138.15L504.749,106.571ZM504.749,114.472L552.602,142.1C552.602,142.1 552.602,197.356 552.602,197.356C552.602,197.356 504.749,224.984 504.749,224.984C504.749,224.984 456.896,197.356 456.896,197.356C456.896,197.356 456.896,142.1 456.896,142.1L504.749,114.472Z" style="fill:rgb(212,0,106);"/>
            </g>
            <g transform="matrix(0.950021,0,0,0.950021,260.062,8.75484)">
                <path d="M504.749,106.571L559.444,138.15L559.444,201.306L504.749,232.884L450.054,201.306L450.054,138.15L504.749,106.571ZM504.749,114.472L552.602,142.1C552.602,142.1 552.602,197.356 552.602,197.356C552.602,197.356 504.749,224.984 504.749,224.984C504.749,224.984 456.896,197.356 456.896,197.356C456.896,197.356 456.896,142.1 456.896,142.1L504.749,114.472Z" style="fill:rgb(0,212,212);"/>
            </g>
            <g transform="matrix(0.950021,0,0,0.950021,467.908,8.75484)">
                <path d="M504.749,106.571L559.444,138.15L559.444,201.306L504.749,232.884L450.054,201.306L450.054,138.15C468.286,127.624 486.517,117.098 504.749,106.571ZM504.749,114.472L552.602,142.1C552.602,142.1 552.602,197.356 552.602,197.356C552.602,197.356 504.749,224.984 504.749,224.984C504.749,224.984 456.896,197.356 456.896,197.356C456.896,197.356 456.896,142.1 456.896,142.1L504.749,114.472Z" style="fill:rgb(0,106,212);"/>
            </g>
            <g transform="matrix(0.950021,0,0,0.950021,156.139,8.75484)">
                <path d="M504.749,106.571L559.444,138.15L559.444,201.306L504.749,232.884L450.054,201.306L450.054,138.15L504.749,106.571ZM504.749,114.472L552.602,142.1C552.602,142.1 552.602,197.356 552.602,197.356C552.602,197.356 504.749,224.984 504.749,224.984C504.749,224.984 456.896,197.356 456.896,197.356C456.896,197.356 456.896,142.1 456.896,142.1L504.749,114.472Z" style="fill:rgb(0,212,106);"/>
            </g>
        </g>
        <g transform="matrix(-0.950021,-1.16344e-16,1.16344e-16,-0.950021,583.092,531.245)">
            <path d="M504.749,106.571L559.444,138.15L559.444,201.306L504.749,232.884L450.054,201.306L450.054,138.15L504.749,106.571ZM504.749,114.472L552.602,142.1C552.602,142.1 552.602,197.356 552.602,197.356C552.602,197.356 504.749,224.984 504.749,224.984C504.749,224.984 456.896,197.356 456.896,197.356C456.896,197.356 456.896,142.1 456.896,142.1L504.749,114.472Z" style="fill:rgb(212,0,106);"/>
        </g>
        <g transform="matrix(-0.950021,-1.16344e-16,1.16344e-16,-0.950021,531.484,801.245)">
            <path d="M504.749,106.571L559.444,138.15L559.444,201.306L504.749,232.884L450.054,201.306L450.054,138.15L504.749,106.571ZM504.749,114.472L552.602,142.1C552.602,142.1 552.602,197.356 552.602,197.356C552.602,197.356 504.749,224.984 504.749,224.984C504.749,224.984 456.896,197.356 456.896,197.356C456.896,197.356 456.896,142.1 456.896,142.1L504.749,114.472Z" style="fill:rgb(212,0,106);"/>
        </g>
        <g transform="matrix(-0.950021,-1.16344e-16,1.16344e-16,-0.950021,947.176,801.245)">
            <path d="M504.749,106.571L559.444,138.15L559.444,201.306L504.749,232.884L450.054,201.306L450.054,138.15L504.749,106.571ZM504.749,114.472L552.602,142.1C552.602,142.1 552.602,197.356 552.602,197.356C552.602,197.356 504.749,224.984 504.749,224.984C504.749,224.984 456.896,197.356 456.896,197.356C456.896,197.356 456.896,142.1 456.896,142.1L504.749,114.472Z" style="fill:rgb(0,212,212);"/>
        </g>
        <g transform="matrix(-0.950021,-1.16344e-16,1.16344e-16,-0.950021,531.484,441.346)">
            <path d="M504.749,106.571L559.444,138.15L559.444,201.306L504.749,232.884L450.054,201.306L450.054,138.15L504.749,106.571ZM504.749,114.472L552.602,142.1C552.602,142.1 552.602,197.356 552.602,197.356C552.602,197.356 504.749,224.984 504.749,224.984C504.749,224.984 456.896,197.356 456.896,197.356C456.896,197.356 456.896,142.1 456.896,142.1L504.749,114.472Z" style="fill:rgb(0,212,106);"/>
        </g>
        <g transform="matrix(-0.950021,-1.16344e-16,1.16344e-16,-0.950021,635.407,801.245)">
            <path d="M504.749,106.571L559.444,138.15L559.444,201.306L504.749,232.884L450.054,201.306L450.054,138.15L504.749,106.571ZM504.749,114.472L552.602,142.1C552.602,142.1 552.602,197.356 552.602,197.356C552.602,197.356 504.749,224.984 504.749,224.984C504.749,224.984 456.896,197.356 456.896,197.356C456.896,197.356 456.896,142.1 456.896,142.1L504.749,114.472Z" style="fill:rgb(0,212,106);"/>
        </g>
        <g transform="matrix(-0.950021,-1.16344e-16,1.16344e-16,-0.950021,635.407,621.245)">
            <path d="M504.749,106.571L559.444,138.15L559.444,201.306L504.749,232.884L450.054,201.306L450.054,138.15L504.749,106.571ZM504.749,114.472L552.602,142.1C552.602,142.1 552.602,197.356 552.602,197.356C552.602,197.356 504.749,224.984 504.749,224.984C504.749,224.984 456.896,197.356 456.896,197.356C456.896,197.356 456.896,142.1 456.896,142.1L504.749,114.472Z" style="fill:rgb(0,212,212);"/>
        </g>
        <g transform="matrix(-0.950021,-1.16344e-16,1.16344e-16,-0.950021,1155.02,801.245)">
            <path d="M504.749,106.571L559.444,138.15L559.444,201.306L504.749,232.884L450.054,201.306L450.054,138.15L504.749,106.571ZM504.749,114.472L552.602,142.1C552.602,142.1 552.602,197.356 552.602,197.356C552.602,197.356 504.749,224.984 504.749,224.984C504.749,224.984 456.896,197.356 456.896,197.356C456.896,197.356 456.896,142.1 456.896,142.1L504.749,114.472Z" style="fill:rgb(0,212,106);"/>
        </g>
        <g transform="matrix(-0.950021,-1.16344e-16,1.16344e-16,-0.950021,739.33,621.245)">
            <path d="M504.749,106.571L559.444,138.15L559.444,201.306L504.749,232.884L450.054,201.306L450.054,138.15L504.749,106.571ZM504.749,114.472L552.602,142.1C552.602,142.1 552.602,197.356 552.602,197.356C552.602,197.356 504.749,224.984 504.749,224.984C504.749,224.984 456.896,197.356 456.896,197.356C456.896,197.356 456.896,142.1 456.896,142.1L504.749,114.472Z" style="fill:rgb(0,106,212);"/>
        </g>
        <g transform="matrix(-0.950021,-1.16344e-16,1.16344e-16,-0.950021,1051.1,801.245)">
            <path d="M504.749,106.571L559.444,138.15L559.444,201.306L504.749,232.884L450.054,201.306L450.054,138.15L504.749,106.571ZM504.749,114.472L552.602,142.1C552.602,142.1 552.602,197.356 552.602,197.356C552.602,197.356 504.749,224.984 504.749,224.984C504.749,224.984 456.896,197.356 456.896,197.356C456.896,197.356 456.896,142.1 456.896,142.1L504.749,114.472Z" style="fill:rgb(0,106,212);"/>
        </g>
        <g transform="matrix(-0.950021,-1.16344e-16,1.16344e-16,-0.950021,739.33,801.245)">
            <path d="M504.749,106.571L559.444,138.15L559.444,201.306L504.749,232.884L450.054,201.306L450.054,138.15L504.749,106.571ZM504.749,114.472L552.602,142.1C552.602,142.1 552.602,197.356 552.602,197.356C552.602,197.356 504.749,224.984 504.749,224.984C504.749,224.984 456.896,197.356 456.896,197.356C456.896,197.356 456.896,142.1 456.896,142.1L504.749,114.472Z" style="fill:rgb(0,106,212);"/>
        </g>
        <g transform="matrix(-0.950021,-1.16344e-16,1.16344e-16,-0.950021,531.484,621.245)">
            <path d="M504.749,106.571L559.444,138.15L559.444,201.306L504.749,232.884L450.054,201.306L450.054,138.15L504.749,106.571ZM504.749,114.472L552.602,142.1C552.602,142.1 552.602,197.356 552.602,197.356C552.602,197.356 504.749,224.984 504.749,224.984C504.749,224.984 456.896,197.356 456.896,197.356C456.896,197.356 456.896,142.1 456.896,142.1L504.749,114.472Z" style="fill:rgb(0,212,106);"/>
        </g>
        <g transform="matrix(-0.950021,-1.16344e-16,1.16344e-16,-0.950021,843.253,801.245)">
            <path d="M504.749,106.571L559.444,138.15L559.444,201.306L504.749,232.884L450.054,201.306L450.054,138.15L504.749,106.571ZM504.749,114.472L552.602,142.1C552.602,142.1 552.602,197.356 552.602,197.356C552.602,197.356 504.749,224.984 504.749,224.984C504.749,224.984 456.896,197.356 456.896,197.356C456.896,197.356 456.896,142.1 456.896,142.1L504.749,114.472Z" style="fill:rgb(212,0,106);"/>
        </g>
    </g>
</svg>
