<?xml version="1.0" encoding="UTF-8" standalone="no"?>
<!DOCTYPE svg PUBLIC "-//W3C//DTD SVG 1.1//EN" "http://www.w3.org/Graphics/SVG/1.1/DTD/svg11.dtd">
<svg width="100%" height="100%" viewBox="0 0 487 148" version="1.1" xmlns="http://www.w3.org/2000/svg" xmlns:xlink="http://www.w3.org/1999/xlink" xml:space="preserve" xmlns:serif="http://www.serif.com/" style="fill-rule:evenodd;clip-rule:evenodd;stroke-linejoin:round;stroke-miterlimit:1.5;">
    <g transform="matrix(1,0,0,1,-183.875,-158.298)">
        <g transform="matrix(0.951395,-0.203638,0.159669,0.967642,-2.93336,119.802)">
            <g transform="matrix(1.01523,0.213653,-0.167521,0.998185,183.204,78.3384)">
                <path d="M380.861,37.093L374.505,30.05L383.816,31.871L380.861,37.093Z"/>
                <path d="M430.586,61.779C430.586,61.779 395.404,41.874 380.772,33.595" style="fill:none;stroke:black;stroke-width:2px;"/>
            </g>
        </g>
        <g transform="matrix(1,-0,-0,1,183.875,158.298)">
            <path d="M69,120.357L60,117.357L69,114.357L69,120.357Z"/>
            <path d="M100.409,117.357L67.2,117.357" style="fill:none;stroke:black;stroke-width:2px;stroke-linecap:square;"/>
        </g>
        <g transform="matrix(1,0,0,1,-67.7799,-69.5596)">
            <g transform="matrix(0.798635,0,0,0.799966,50.6744,45.5792)">
                <circle cx="289.219" cy="265.422" r="37.564" style="fill:rgb(0,212,106);"/>
            </g>
            <g transform="matrix(1,0,0,1,-2.71817,-2.19639)">
                <g transform="matrix(19.334,0,0,19.334,263.514,267.024)">
                    <path d="M0.347,-0.736L0.701,-0L0.572,-0L0.509,-0.144L0.172,-0.144L0.109,-0L-0.016,-0L0.336,-0.736L0.347,-0.736ZM0.297,-0.423L0.217,-0.245L0.465,-0.245L0.386,-0.422L0.343,-0.523L0.341,-0.523L0.297,-0.423Z" style="fill-rule:nonzero;"/>
                </g>
                <g transform="matrix(19.334,0,0,19.334,276.758,267.024)">
                    <path d="M0.267,-0.343L0.221,-0.447L0.2,-0.343L0.132,-0L0.021,-0L0.173,-0.735L0.185,-0.735L0.387,-0.338L0.447,-0.205L0.507,-0.338L0.705,-0.735L0.716,-0.735L0.874,-0L0.764,-0L0.69,-0.343L0.668,-0.447L0.628,-0.343L0.45,-0L0.444,-0L0.267,-0.343Z" style="fill-rule:nonzero;"/>
                </g>
                <g transform="matrix(19.334,0,0,19.334,293.675,267.024)">
                    <path d="M0.239,-0.343L-0.016,-0.735L0.118,-0.735L0.295,-0.445L0.472,-0.735L0.605,-0.735L0.351,-0.341L0.351,-0L0.239,-0L0.239,-0.343Z" style="fill-rule:nonzero;"/>
                </g>
            </g>
        </g>
        <g transform="matrix(1,0,0,1,-67.7799,17.7472)">
            <g transform="matrix(0.798635,0,0,0.799966,50.6744,45.5792)">
                <circle cx="289.219" cy="265.422" r="37.564" style="fill:rgb(0,212,106);"/>
            </g>
            <g transform="matrix(1,0,0,1,-0.758526,-1.96264)">
                <g transform="matrix(19.334,0,0,19.334,263.514,267.024)">
                    <path d="M0.412,0.007C0.336,0.007 0.27,-0.01 0.215,-0.044C0.159,-0.078 0.116,-0.124 0.087,-0.181C0.058,-0.238 0.043,-0.3 0.043,-0.369C0.043,-0.442 0.059,-0.507 0.091,-0.564C0.122,-0.621 0.167,-0.666 0.224,-0.699C0.281,-0.731 0.346,-0.747 0.419,-0.747C0.452,-0.747 0.482,-0.744 0.511,-0.737C0.539,-0.729 0.562,-0.721 0.581,-0.713C0.6,-0.704 0.612,-0.696 0.618,-0.69L0.569,-0.59C0.528,-0.626 0.475,-0.644 0.41,-0.644C0.364,-0.644 0.322,-0.633 0.285,-0.61C0.248,-0.587 0.218,-0.555 0.197,-0.513C0.176,-0.471 0.165,-0.422 0.165,-0.367C0.165,-0.316 0.175,-0.27 0.194,-0.229C0.213,-0.188 0.24,-0.155 0.277,-0.131C0.314,-0.107 0.357,-0.095 0.408,-0.095C0.467,-0.095 0.523,-0.112 0.578,-0.145L0.611,-0.05C0.596,-0.037 0.57,-0.024 0.531,-0.012C0.492,0.001 0.452,0.007 0.412,0.007Z" style="fill-rule:nonzero;"/>
                </g>
                <g transform="matrix(19.334,0,0,19.334,276.449,267.024)">
                    <path d="M0.239,-0.343L-0.016,-0.735L0.118,-0.735L0.295,-0.445L0.472,-0.735L0.605,-0.735L0.351,-0.341L0.351,-0L0.239,-0L0.239,-0.343Z" style="fill-rule:nonzero;"/>
                </g>
                <g transform="matrix(19.334,0,0,19.334,287.836,267.024)">
                    <path d="M0.078,-0.735L0.255,-0.735C0.403,-0.735 0.507,-0.7 0.566,-0.63C0.624,-0.56 0.654,-0.477 0.654,-0.38C0.654,-0.313 0.641,-0.251 0.616,-0.194C0.591,-0.136 0.549,-0.09 0.491,-0.054C0.432,-0.018 0.356,-0 0.261,-0L0.078,-0L0.078,-0.735ZM0.273,-0.099C0.365,-0.099 0.432,-0.125 0.474,-0.178C0.515,-0.23 0.536,-0.296 0.536,-0.375C0.536,-0.452 0.515,-0.515 0.473,-0.564C0.431,-0.613 0.364,-0.637 0.273,-0.637L0.19,-0.637L0.19,-0.099L0.273,-0.099Z" style="fill-rule:nonzero;"/>
                </g>
            </g>
        </g>
        <g transform="matrix(1,0,0,1,32.6291,17.7472)">
            <g transform="matrix(0.798635,0,0,0.799966,50.6744,45.5792)">
                <circle cx="289.219" cy="265.422" r="37.564" style="fill:rgb(0,212,106);"/>
            </g>
            <g transform="matrix(1,0,0,1,-1.70589,-2.00131)">
                <g transform="matrix(19.334,0,0,19.334,263.514,267.024)">
                    <path d="M0.078,-0.735L0.255,-0.735C0.403,-0.735 0.507,-0.7 0.566,-0.63C0.624,-0.56 0.654,-0.477 0.654,-0.38C0.654,-0.313 0.641,-0.251 0.616,-0.194C0.591,-0.136 0.549,-0.09 0.491,-0.054C0.432,-0.018 0.356,-0 0.261,-0L0.078,-0L0.078,-0.735ZM0.273,-0.099C0.365,-0.099 0.432,-0.125 0.474,-0.178C0.515,-0.23 0.536,-0.296 0.536,-0.375C0.536,-0.452 0.515,-0.515 0.473,-0.564C0.431,-0.613 0.364,-0.637 0.273,-0.637L0.19,-0.637L0.19,-0.099L0.273,-0.099Z" style="fill-rule:nonzero;"/>
                </g>
                <g transform="matrix(19.334,0,0,19.334,276.236,267.024)">
                    <path d="M0.347,-0.736L0.701,-0L0.572,-0L0.509,-0.144L0.172,-0.144L0.109,-0L-0.016,-0L0.336,-0.736L0.347,-0.736ZM0.297,-0.423L0.217,-0.245L0.465,-0.245L0.386,-0.422L0.343,-0.523L0.341,-0.523L0.297,-0.423Z" style="fill-rule:nonzero;"/>
                </g>
                <g transform="matrix(19.334,0,0,19.334,289.48,267.024)">
                    <path d="M0.187,-0.476L0.19,-0.396L0.19,-0L0.078,-0L0.078,-0.736L0.092,-0.736L0.524,-0.254L0.52,-0.338L0.52,-0.735L0.632,-0.735L0.632,-0L0.617,-0L0.187,-0.476Z" style="fill-rule:nonzero;"/>
                </g>
            </g>
        </g>
        <g transform="matrix(1,-0,-0,1,183.875,158.298)">
            <path d="M166.761,110.31L160.409,117.357L169.718,115.53L166.761,110.31Z"/>
            <path d="M305.196,31.876L314.505,30.05L308.154,37.097L305.196,31.876Z"/>
            <path d="M166.673,113.808C191.567,99.703 283.347,47.704 308.241,33.599" style="fill:none;stroke:black;stroke-width:2px;stroke-linecap:round;"/>
        </g>
        <g transform="matrix(1,0,0,1,246.725,-69.5596)">
            <g transform="matrix(0.798635,0,0,0.799966,50.6744,45.5792)">
                <circle cx="289.219" cy="265.422" r="37.564" style="fill:rgb(0,212,106);"/>
            </g>
            <g transform="matrix(1,0,0,1,3.92997,-2.00131)">
                <g transform="matrix(19.334,0,0,19.334,263.514,267.024)">
                    <path d="M0.077,-0.735L0.422,-0.735L0.422,-0.638L0.188,-0.638L0.188,-0.43L0.37,-0.43L0.37,-0.332L0.188,-0.332L0.188,-0L0.077,-0L0.077,-0.735Z" style="fill-rule:nonzero;"/>
                </g>
                <g transform="matrix(19.334,0,0,19.334,272.543,267.024)">
                    <rect x="0.091" y="-0.735" width="0.112" height="0.735" style="fill-rule:nonzero;"/>
                </g>
                <g transform="matrix(19.334,0,0,19.334,278.227,267.024)">
                    <path d="M0.187,-0.476L0.19,-0.396L0.19,-0L0.078,-0L0.078,-0.736L0.092,-0.736L0.524,-0.254L0.52,-0.338L0.52,-0.735L0.632,-0.735L0.632,-0L0.617,-0L0.187,-0.476Z" style="fill-rule:nonzero;"/>
                </g>
            </g>
        </g>
        <g transform="matrix(1,-0,-0,1,183.875,158.298)">
            <path d="M33,69.1L30,60.1L27,69.1L33,69.1Z"/>
            <path d="M30,67.3L30,87.307" style="fill:none;stroke:black;stroke-width:2px;"/>
        </g>
        <g transform="matrix(1,0,0,1,246.725,17.7472)">
            <g transform="matrix(0.798635,0,0,0.799966,50.6744,45.5792)">
                <circle cx="289.219" cy="265.422" r="37.564" style="fill:rgb(0,212,106);"/>
            </g>
            <g transform="matrix(1,0,0,1,0.0245014,-2.00131)">
                <g transform="matrix(19.334,0,0,19.334,263.514,267.024)">
                    <path d="M0.421,0.01C0.348,0.01 0.283,-0.007 0.226,-0.04C0.169,-0.073 0.124,-0.119 0.092,-0.178C0.059,-0.236 0.043,-0.301 0.043,-0.374C0.043,-0.445 0.059,-0.508 0.092,-0.565C0.125,-0.622 0.17,-0.666 0.228,-0.698C0.286,-0.73 0.351,-0.746 0.424,-0.746C0.463,-0.746 0.499,-0.743 0.531,-0.736C0.562,-0.729 0.588,-0.721 0.608,-0.712C0.628,-0.703 0.642,-0.695 0.649,-0.688L0.605,-0.594C0.564,-0.627 0.503,-0.644 0.422,-0.644C0.369,-0.644 0.322,-0.632 0.283,-0.609C0.244,-0.586 0.214,-0.554 0.193,-0.514C0.172,-0.474 0.162,-0.429 0.162,-0.38C0.162,-0.324 0.173,-0.274 0.196,-0.23C0.218,-0.186 0.249,-0.152 0.289,-0.128C0.328,-0.103 0.373,-0.091 0.423,-0.091C0.454,-0.091 0.484,-0.095 0.513,-0.103C0.542,-0.11 0.566,-0.122 0.586,-0.139L0.586,-0.281L0.435,-0.281L0.435,-0.384L0.697,-0.384L0.697,-0.096C0.673,-0.066 0.637,-0.041 0.589,-0.021C0.54,-0 0.484,0.01 0.421,0.01Z" style="fill-rule:nonzero;"/>
                </g>
                <g transform="matrix(19.334,0,0,19.334,277.899,267.024)">
                    <path d="M0.347,-0.736L0.701,-0L0.572,-0L0.509,-0.144L0.172,-0.144L0.109,-0L-0.016,-0L0.336,-0.736L0.347,-0.736ZM0.297,-0.423L0.217,-0.245L0.465,-0.245L0.386,-0.422L0.343,-0.523L0.341,-0.523L0.297,-0.423Z" style="fill-rule:nonzero;"/>
                </g>
                <g transform="matrix(19.334,0,0,19.334,291.142,267.024)">
                    <path d="M0.078,-0.735L0.191,-0.735L0.191,-0.1L0.402,-0.1L0.402,-0L0.078,-0L0.078,-0.735Z" style="fill-rule:nonzero;"/>
                </g>
            </g>
        </g>
        <g transform="matrix(1,0,0,1,358.345,-28.174)">
            <g transform="matrix(0.798635,0,0,0.799966,50.6744,45.5792)">
                <circle cx="289.219" cy="265.422" r="37.564" style="fill:rgb(0,212,106);"/>
            </g>
            <g transform="matrix(1,0,0,1,-1.49322,-2.00131)">
                <g transform="matrix(19.334,0,0,19.334,263.514,267.024)">
                    <path d="M0.077,-0.735L0.189,-0.735L0.189,-0.435L0.448,-0.435L0.448,-0.735L0.56,-0.735L0.56,-0L0.448,-0L0.448,-0.341L0.189,-0.341L0.189,-0L0.077,-0L0.077,-0.735Z" style="fill-rule:nonzero;"/>
                </g>
                <g transform="matrix(19.334,0,0,19.334,275.83,267.024)">
                    <path d="M0.347,-0.736L0.701,-0L0.572,-0L0.509,-0.144L0.172,-0.144L0.109,-0L-0.016,-0L0.336,-0.736L0.347,-0.736ZM0.297,-0.423L0.217,-0.245L0.465,-0.245L0.386,-0.422L0.343,-0.523L0.341,-0.523L0.297,-0.423Z" style="fill-rule:nonzero;"/>
                </g>
                <g transform="matrix(19.334,0,0,19.334,289.074,267.024)">
                    <path d="M0.187,-0.476L0.19,-0.396L0.19,-0L0.078,-0L0.078,-0.736L0.092,-0.736L0.524,-0.254L0.52,-0.338L0.52,-0.735L0.632,-0.735L0.632,-0L0.617,-0L0.187,-0.476Z" style="fill-rule:nonzero;"/>
                </g>
            </g>
        </g>
        <g transform="matrix(1,0,0,1,32.6291,-69.5596)">
            <g transform="matrix(0.798635,0,0,0.799966,50.6744,45.5792)">
                <circle cx="289.219" cy="265.422" r="37.564" style="fill:rgb(0,212,106);"/>
            </g>
            <g transform="matrix(1,0,0,1,0.710858,-2.00131)">
                <g transform="matrix(19.334,0,0,19.334,263.514,267.024)">
                    <path d="M0.078,-0.735L0.265,-0.735C0.37,-0.735 0.44,-0.717 0.475,-0.682C0.51,-0.647 0.527,-0.604 0.527,-0.554C0.527,-0.521 0.52,-0.489 0.505,-0.46C0.49,-0.43 0.467,-0.408 0.435,-0.393C0.482,-0.381 0.517,-0.36 0.54,-0.33C0.562,-0.3 0.573,-0.265 0.573,-0.224C0.573,-0.181 0.566,-0.144 0.553,-0.112C0.54,-0.08 0.512,-0.053 0.47,-0.032C0.428,-0.011 0.367,-0 0.288,-0L0.078,-0L0.078,-0.735ZM0.283,-0.423C0.33,-0.423 0.364,-0.435 0.384,-0.458C0.404,-0.481 0.414,-0.51 0.414,-0.545C0.414,-0.608 0.369,-0.64 0.278,-0.64L0.188,-0.64L0.188,-0.423L0.283,-0.423ZM0.303,-0.094C0.364,-0.094 0.405,-0.106 0.426,-0.131C0.447,-0.155 0.457,-0.186 0.457,-0.223C0.457,-0.258 0.445,-0.286 0.421,-0.305C0.397,-0.324 0.361,-0.334 0.312,-0.334L0.188,-0.334L0.188,-0.094L0.303,-0.094Z" style="fill-rule:nonzero;"/>
                </g>
                <g transform="matrix(19.334,0,0,19.334,275.617,267.024)">
                    <path d="M0.077,-0.735L0.399,-0.735L0.399,-0.637L0.188,-0.637L0.188,-0.434L0.358,-0.434L0.358,-0.334L0.188,-0.334L0.188,-0.099L0.432,-0.099L0.432,-0L0.077,-0L0.077,-0.735Z" style="fill-rule:nonzero;"/>
                </g>
                <g transform="matrix(19.334,0,0,19.334,284.646,267.024)">
                    <path d="M0.187,-0.476L0.19,-0.396L0.19,-0L0.078,-0L0.078,-0.736L0.092,-0.736L0.524,-0.254L0.52,-0.338L0.52,-0.735L0.632,-0.735L0.632,-0L0.617,-0L0.187,-0.476Z" style="fill-rule:nonzero;"/>
                </g>
            </g>
        </g>
        <g transform="matrix(1,-0,-0,1,183.875,158.298)">
            <path d="M69,27.05L60,30.05L69,33.05L69,27.05Z"/>
            <path d="M91.409,27.05L100.409,30.05L91.409,33.05L91.409,27.05Z"/>
            <path d="M67.2,30.05L93.209,30.05" style="fill:none;stroke:black;stroke-width:2px;stroke-linecap:round;"/>
        </g>
        <g transform="matrix(1,-0,-0,1,183.875,158.298)">
            <path d="M133.409,69.1L130.409,60.1L127.409,69.1L133.409,69.1Z"/>
            <path d="M133.409,78.307L130.409,87.307L127.409,78.307L133.409,78.307Z"/>
            <path d="M130.409,67.3L130.409,80.107" style="fill:none;stroke:black;stroke-width:2px;stroke-linecap:round;"/>
        </g>
        <g transform="matrix(1,-0,-0,1,183.875,158.298)">
            <path d="M347.505,69.1L344.505,60.1L341.505,69.1L347.505,69.1Z"/>
            <path d="M347.505,78.307L344.505,87.307L341.505,78.307L347.505,78.307Z"/>
            <path d="M344.505,67.3L344.505,80.107" style="fill:none;stroke:black;stroke-width:2px;stroke-linecap:round;"/>
        </g>
        <g transform="matrix(0.951395,0.203638,-0.159669,0.967642,71.1533,-104.788)">
            <g transform="matrix(1.01523,-0.213653,0.167521,0.998185,158.511,238.525)">
                <path d="M380.861,110.314L374.505,117.357L383.816,115.536L380.861,110.314Z"/>
                <path d="M421.276,87.448L430.586,85.628L424.23,92.671L421.276,87.448Z"/>
                <path d="M380.772,113.811C391.563,107.706 413.529,95.278 424.32,89.173" style="fill:none;stroke:black;stroke-width:2px;stroke-linecap:round;"/>
            </g>
        </g>
        <g transform="matrix(1,-0,-0,1,183.875,158.298)">
            <path d="M305.196,115.53L314.505,117.357L308.154,110.31L305.196,115.53Z"/>
            <path d="M166.761,37.097L160.409,30.05L169.718,31.876L166.761,37.097Z"/>
            <path d="M308.241,113.808C283.347,99.703 191.567,47.704 166.673,33.599" style="fill:none;stroke:black;stroke-width:2px;stroke-linecap:round;"/>
        </g>
        <g transform="matrix(1,0,0,1,139.677,-25.9062)">
            <g transform="matrix(0.798635,0,0,0.799966,50.6744,45.5792)">
                <circle cx="289.219" cy="265.422" r="37.564" style="fill:rgb(0,212,106);"/>
            </g>
            <g transform="matrix(1,0,0,1,2.30591,-2.01098)">
                <g transform="matrix(19.334,0,0,19.334,263.514,267.024)">
                    <path d="M0.077,-0.735L0.399,-0.735L0.399,-0.637L0.188,-0.637L0.188,-0.434L0.358,-0.434L0.358,-0.334L0.188,-0.334L0.188,-0.099L0.432,-0.099L0.432,-0L0.077,-0L0.077,-0.735Z" style="fill-rule:nonzero;"/>
                </g>
                <g transform="matrix(19.334,0,0,19.334,272.543,267.024)">
                    <path d="M-0.016,-0.735L0.111,-0.735L0.331,-0.23L0.552,-0.735L0.678,-0.735L0.339,-0L0.324,-0L-0.016,-0.735Z" style="fill-rule:nonzero;"/>
                </g>
                <g transform="matrix(19.334,0,0,19.334,285.342,267.024)">
                    <path d="M0.077,-0.735L0.399,-0.735L0.399,-0.637L0.188,-0.637L0.188,-0.434L0.358,-0.434L0.358,-0.334L0.188,-0.334L0.188,-0.099L0.432,-0.099L0.432,-0L0.077,-0L0.077,-0.735Z" style="fill-rule:nonzero;"/>
                </g>
            </g>
        </g>
    </g>
</svg>
